<?xml version="1.0" standalone="no"?>
<!DOCTYPE svg PUBLIC "-//W3C//DTD SVG 20010904//EN"
 "http://www.w3.org/TR/2001/REC-SVG-20010904/DTD/svg10.dtd">
<svg version="1.0" xmlns="http://www.w3.org/2000/svg"
 width="300.000000pt" height="300.000000pt" viewBox="0 0 300.000000 300.000000"
 preserveAspectRatio="xMidYMid meet">
<metadata>
Created by potrace 1.11, written by Peter Selinger 2001-2013
</metadata>
<g transform="translate(0.000000,300.000000) scale(0.100000,-0.100000)"
fill="#000000" stroke="none">
<path d="M2570 2761 c-14 -5 -41 -17 -60 -28 -19 -11 -51 -29 -70 -39 -19 -11
-37 -21 -40 -24 -3 -3 -25 -16 -50 -29 -25 -14 -48 -29 -51 -34 -3 -5 -8 -7
-10 -6 -5 3 -140 -73 -181 -102 -15 -10 -32 -19 -38 -19 -6 0 -13 -7 -16 -15
-4 -8 -12 -15 -19 -15 -8 0 -57 -27 -110 -60 -53 -33 -98 -60 -100 -60 -1 0
-32 -18 -66 -40 -35 -22 -75 -46 -89 -53 -14 -6 -47 -27 -75 -44 -27 -18 -55
-33 -62 -33 -7 0 -13 -4 -13 -10 0 -5 -4 -10 -10 -10 -5 0 -42 -19 -82 -43
-40 -24 -80 -46 -88 -50 -8 -4 -37 -21 -65 -37 -27 -17 -66 -38 -85 -48 -19
-9 -37 -20 -40 -23 -3 -4 -32 -21 -65 -39 -33 -17 -121 -67 -195 -111 -74 -43
-142 -82 -150 -86 -8 -4 -17 -9 -20 -12 -3 -3 -21 -14 -40 -25 -106 -57 -145
-80 -148 -88 -2 -4 -8 -6 -13 -2 -5 3 -9 0 -9 -5 0 -6 -4 -11 -9 -11 -19 0
-234 -132 -255 -157 l-24 -28 52 -53 c41 -41 67 -59 122 -78 38 -14 74 -26 80
-28 7 -1 19 -8 28 -15 8 -7 21 -9 27 -5 8 5 9 3 5 -5 -5 -8 -3 -11 5 -10 8 2
40 -9 72 -24 32 -15 64 -27 72 -27 7 0 16 -4 19 -9 4 -5 25 -13 49 -17 53 -10
48 -9 74 -18 15 -5 28 -2 41 11 23 23 124 109 160 137 15 12 36 30 47 41 11
11 47 43 80 70 33 27 65 54 71 60 6 5 35 30 65 55 29 25 64 55 76 67 13 12 23
20 23 18 0 -2 12 8 28 22 15 14 47 42 72 62 24 20 57 48 72 64 15 15 32 27 37
27 5 0 11 4 13 9 2 5 53 50 113 101 61 50 125 104 143 121 18 16 35 29 37 29
3 0 13 8 24 18 10 9 40 35 66 57 26 22 53 45 59 50 44 41 166 135 166 128 0
-4 -26 -35 -58 -69 -31 -33 -95 -103 -142 -155 -47 -51 -96 -105 -110 -119
-14 -14 -46 -52 -70 -85 -25 -33 -51 -64 -57 -68 -7 -4 -19 -20 -27 -35 -8
-15 -28 -42 -45 -59 -16 -18 -27 -33 -23 -33 4 0 0 -6 -8 -13 -9 -7 -57 -66
-108 -132 -51 -66 -109 -142 -130 -169 -20 -26 -43 -54 -49 -61 -7 -8 -13 -16
-13 -20 0 -3 -11 -17 -25 -31 -14 -14 -25 -28 -25 -32 0 -4 -17 -25 -38 -48
-162 -177 -167 -184 -177 -242 -13 -71 -10 -394 4 -495 2 -13 65 -36 98 -35
20 1 37 9 49 27 72 97 152 200 174 222 36 38 112 123 132 150 l18 23 52 -25
c29 -13 56 -28 59 -33 4 -5 12 -5 18 -2 6 4 11 2 11 -3 0 -6 3 -10 8 -9 4 1
21 -5 37 -12 17 -7 32 -14 35 -15 3 0 14 -6 25 -12 11 -6 40 -18 65 -26 25 -9
110 -39 190 -67 120 -42 149 -49 172 -41 15 6 28 8 28 5 0 -18 32 31 36 53 4
26 13 79 20 113 2 8 6 34 9 58 2 24 7 47 9 50 2 4 6 30 10 57 3 28 8 61 11 75
3 14 8 41 10 60 2 19 6 45 9 56 4 22 11 63 22 132 3 20 7 48 10 62 2 14 7 43
10 65 3 22 8 47 10 55 5 13 15 85 17 118 0 6 3 12 6 12 3 0 7 19 8 43 4 71 26
198 38 218 4 5 1 9 -5 9 -6 0 -8 5 -3 13 4 6 8 18 9 25 7 45 26 161 30 182 3
14 7 36 9 50 2 14 6 44 9 67 3 23 10 59 14 80 5 21 8 48 7 61 -1 12 1 22 5 22
4 0 7 6 7 13 0 18 12 108 18 137 3 14 8 41 10 60 3 19 7 49 10 65 3 17 7 50
10 75 3 25 8 60 10 78 4 28 -1 39 -28 63 -17 16 -34 29 -37 28 -3 0 -16 -4
-30 -8z"/>
</g>
</svg>
